<?xml version="1.0" encoding="UTF-8"?>
<svg width="1440px" height="320px" viewBox="0 0 1440 320" xmlns="http://www.w3.org/2000/svg" xmlns:xlink="http://www.w3.org/1999/xlink" version="1.1">
 <!-- Generated by Pixelmator Pro 1.6.1 -->
 <path id="Path" d="M0 96 L24 117.3 C48 139 96 181 144 176 192 171 240 117 288 128 336 139 384 213 432 245.3 480 277 528 267 576 224 624 181 672 107 720 96 768 85 816 139 864 144 912 149 960 107 1008 117.3 1056 128 1104 192 1152 208 1200 224 1248 192 1296 154.7 1344 117 1392 75 1416 53.3 L1440 32 1440 320 1416 320 C1392 320 1344 320 1296 320 1248 320 1200 320 1152 320 1104 320 1056 320 1008 320 960 320 912 320 864 320 816 320 768 320 720 320 672 320 624 320 576 320 528 320 480 320 432 320 384 320 336 320 288 320 240 320 192 320 144 320 96 320 48 320 24 320 L0 320 Z" fill="#a2d9ff" fill-opacity="0.908" stroke="none"/>
 <path id="wave(1)" d="M0 256 L24 245.3 C48 235 96 213 144 181.3 192 149 240 107 288 112 336 117 384 171 432 181.3 480 192 528 160 576 138.7 624 117 672 107 720 117.3 768 128 816 160 864 181.3 912 203 960 213 1008 229.3 1056 245 1104 267 1152 245.3 1200 224 1248 160 1296 144 1344 128 1392 160 1416 176 L1440 192 1440 320 1416 320 C1392 320 1344 320 1296 320 1248 320 1200 320 1152 320 1104 320 1056 320 1008 320 960 320 912 320 864 320 816 320 768 320 720 320 672 320 624 320 576 320 528 320 480 320 432 320 384 320 336 320 288 320 240 320 192 320 144 320 96 320 48 320 24 320 L0 320 Z" fill="#0099ff" fill-opacity="0.845" stroke="none"/>
 <path id="wave(2)" d="M0 192 L24 197.3 C48 203 96 213 144 234.7 192 256 240 288 288 256 336 224 384 128 432 96 480 64 528 96 576 138.7 624 181 672 235 720 229.3 768 224 816 160 864 138.7 912 117 960 139 1008 128 1056 117 1104 75 1152 90.7 1200 107 1248 181 1296 213.3 1344 245 1392 235 1416 229.3 L1440 224 1440 320 1416 320 C1392 320 1344 320 1296 320 1248 320 1200 320 1152 320 1104 320 1056 320 1008 320 960 320 912 320 864 320 816 320 768 320 720 320 672 320 624 320 576 320 528 320 480 320 432 320 384 320 336 320 288 320 240 320 192 320 144 320 96 320 48 320 24 320 L0 320 Z" fill="#000b76" fill-opacity="0.889" stroke="none"/>
</svg>
