<?xml version="1.0" encoding="UTF-8"?>
<svg width="1440px" height="320px" viewBox="0 0 1440 320" xmlns="http://www.w3.org/2000/svg" xmlns:xlink="http://www.w3.org/1999/xlink" version="1.1">
 <!-- Generated by Pixelmator Pro 1.6.1 -->
 <path id="wave(1)" d="M0 346 L24 335.3 C48 325 96 303 144 271.3 192 239 240 197 288 202 336 207 384 261 432 271.3 480 282 528 250 576 228.7 624 207 672 197 720 207.3 768 218 816 250 864 271.3 912 293 960 303 1008 319.3 1056 335 1104 357 1152 335.3 1200 314 1248 250 1296 234 1344 218 1392 250 1416 266 L1440 282 1440 410 1416 410 C1392 410 1344 410 1296 410 1248 410 1200 410 1152 410 1104 410 1056 410 1008 410 960 410 912 410 864 410 816 410 768 410 720 410 672 410 624 410 576 410 528 410 480 410 432 410 384 410 336 410 288 410 240 410 192 410 144 410 96 410 48 410 24 410 L0 410 Z" fill="#0099ff" fill-opacity="0.845" stroke="none"/>
 <path id="Path" d="M1440 183 L1416 204.3 C1392 226 1344 268 1296 263 1248 258 1200 204 1152 215 1104 226 1056 300 1008 332.3 960 364 912 354 864 311 816 268 768 194 720 183 672 172 624 226 576 231 528 236 480 194 432 204.3 384 215 336 279 288 295 240 311 192 279 144 241.7 96 204 48 162 24 140.3 L0 119 0 407 24 407 C48 407 96 407 144 407 192 407 240 407 288 407 336 407 384 407 432 407 480 407 528 407 576 407 624 407 672 407 720 407 768 407 816 407 864 407 912 407 960 407 1008 407 1056 407 1104 407 1152 407 1200 407 1248 407 1296 407 1344 407 1392 407 1416 407 L1440 407 Z" fill="#a2d9ff" fill-opacity="0.908" stroke="none"/>
 <path id="wave(3)" d="M1440 215 L1413.3 225.7 C1386.7 236 1333 258 1280 279 1226.7 300 1173 322 1120 311 1066.7 300 1013 258 960 257.7 906.7 258 853 300 800 279 746.7 258 693 172 640 151 586.7 130 533 172 480 204.3 426.7 236 373 258 320 257.7 266.7 258 213 236 160 252.3 106.7 268 53 322 27 348.3 L0 375 0 407 26.7 407 C53.3 407 107 407 160 407 213.3 407 267 407 320 407 373.3 407 427 407 480 407 533.3 407 587 407 640 407 693.3 407 747 407 800 407 853.3 407 907 407 960 407 1013.3 407 1067 407 1120 407 1173.3 407 1227 407 1280 407 1333.3 407 1387 407 1413 407 L1440 407 Z" fill="#000b76" fill-opacity="0.821" stroke="none"/>
</svg>
