<?xml version="1.0" encoding="UTF-8"?>
<svg width="1440px" height="320px" viewBox="0 0 1440 320" xmlns="http://www.w3.org/2000/svg" xmlns:xlink="http://www.w3.org/1999/xlink" version="1.1">
 <!-- Generated by Pixelmator Pro 1.6.1 -->
 <path id="Path" d="M0 144 L21.8 170.7 C43.6 197 87 251 131 288 174.5 325 218 347 262 357.3 305.5 368 349 368 393 341.3 436.4 315 480 261 524 261.3 567.3 261 611 315 655 325.3 698.2 336 742 304 785 288 829.1 272 873 272 916 256 960 240 1004 208 1047 208 1090.9 208 1135 240 1178 240 1221.8 240 1265 208 1309 213.3 1352.7 219 1396 261 1418 282.7 L1440 304 1440 400 1418.2 400 C1396.4 400 1353 400 1309 400 1265.5 400 1222 400 1178 400 1134.5 400 1091 400 1047 400 1003.6 400 960 400 916 400 872.7 400 829 400 785 400 741.8 400 698 400 655 400 610.9 400 567 400 524 400 480 400 436 400 393 400 349.1 400 305 400 262 400 218.2 400 175 400 131 400 87.3 400 44 400 22 400 L0 400 Z" fill="#a2d9ff" fill-opacity="1" stroke="none"/>
 <path id="wave(4)" d="M0 336 L60 320 C120 304 240 272 360 272 480 272 600 304 720 314.7 840 325 960 315 1080 293.3 1200 272 1320 240 1380 224 L1440 208 1440 400 1380 400 C1320 400 1200 400 1080 400 960 400 840 400 720 400 600 400 480 400 360 400 240 400 120 400 60 400 L0 400 Z" fill="#000b76" fill-opacity="0.935" stroke="none"/>
 <path id="wave-copy" d="M0 240 L34.3 250.7 C68.6 261 137 283 206 304 274.3 325 343 347 411 352 480 357 549 347 617 346.7 685.7 347 754 357 823 368 891.4 379 960 389 1029 378.7 1097.1 368 1166 336 1234 314.7 1302.9 293 1371 283 1406 277.3 L1440 272 1440 400 1405.7 400 C1371.4 400 1303 400 1234 400 1165.7 400 1097 400 1029 400 960 400 891 400 823 400 754.3 400 686 400 617 400 548.6 400 480 400 411 400 342.9 400 274 400 206 400 137.1 400 69 400 34 400 L0 400 Z" fill="#0099ff" fill-opacity="0.971" stroke="none"/>
</svg>
