<?xml version="1.0" encoding="UTF-8"?>
<svg width="1440px" height="320px" viewBox="0 0 1440 320" xmlns="http://www.w3.org/2000/svg" xmlns:xlink="http://www.w3.org/1999/xlink" version="1.1">
 <!-- Generated by Pixelmator Pro 1.6.1 -->
 <path id="Path" d="M0 64 L21.8 90.7 C43.6 117 87 171 131 208 174.5 245 218 267 262 277.3 305.5 288 349 288 393 261.3 436.4 235 480 181 524 181.3 567.3 181 611 235 655 245.3 698.2 256 742 224 785 208 829.1 192 873 192 916 176 960 160 1004 128 1047 128 1090.9 128 1135 160 1178 160 1221.8 160 1265 128 1309 133.3 1352.7 139 1396 181 1418 202.7 L1440 224 1440 320 1418.2 320 C1396.4 320 1353 320 1309 320 1265.5 320 1222 320 1178 320 1134.5 320 1091 320 1047 320 1003.6 320 960 320 916 320 872.7 320 829 320 785 320 741.8 320 698 320 655 320 610.9 320 567 320 524 320 480 320 436 320 393 320 349.1 320 305 320 262 320 218.2 320 175 320 131 320 87.3 320 44 320 22 320 L0 320 Z" fill="#a2d9ff" fill-opacity="1" stroke="none"/>
 <path id="wave(4)" d="M0 256 L60 240 C120 224 240 192 360 192 480 192 600 224 720 234.7 840 245 960 235 1080 213.3 1200 192 1320 160 1380 144 L1440 128 1440 320 1380 320 C1320 320 1200 320 1080 320 960 320 840 320 720 320 600 320 480 320 360 320 240 320 120 320 60 320 L0 320 Z" fill="#000b76" fill-opacity="0.935" stroke="none"/>
 <path id="wave-copy" d="M0 172 L34.3 182.7 C68.6 193 137 215 206 236 274.3 257 343 279 411 284 480 289 549 279 617 278.7 685.7 279 754 289 823 300 891.4 311 960 321 1029 310.7 1097.1 300 1166 268 1234 246.7 1302.9 225 1371 215 1406 209.3 L1440 204 1440 332 1405.7 332 C1371.4 332 1303 332 1234 332 1165.7 332 1097 332 1029 332 960 332 891 332 823 332 754.3 332 686 332 617 332 548.6 332 480 332 411 332 342.9 332 274 332 206 332 137.1 332 69 332 34 332 L0 332 Z" fill="#0099ff" fill-opacity="0.971" stroke="none"/>
</svg>
